<?xml version="1.0" standalone="no"?> <svg width="190.000000
			" height="
		250.000000
			" version="1.1" xmlns="http://www.w3.org/2000/svg">
		<path d="M 1 1 h 188 v 248 h -188 z " fill="transparent" stroke="black" stroke-width="2" /><path d="M 14 120 l 18 -9 h 76 l 18 9 l -18 9 h -76 l -18 -9 z " fill="white" stroke="black" stroke-width="2" /><path d="M 11 14 v 102.5 l 18 -9 v -75.5 l -18 -18 z " fill="white" stroke="black" stroke-width="2" /><path d="M 14 11 h 112 l -18 18 h -76 l -18 -18 z " fill="black" stroke="black" stroke-width="2" /><path d="M 129 14 v 102.5 l -18 -9 v -75.5 l 18 -18 z " fill="black" stroke="black" stroke-width="2" /><path d="M 11 226 v -102.5 l 18 9 v 75.5 l -18 18 z " fill="white" stroke="black" stroke-width="2" /><path d="M 14 229 h 112 l -18 -18 h -76 l -18 18 z " fill="white" stroke="black" stroke-width="2" /><path d="M 129 226 v -102.5 l -18 9 v 75.5 l 18 18 z " fill="black" stroke="black" stroke-width="2" /><circle cx="160" cy="220" r="20" fill="white" stroke="black" stroke-width="2" /></svg>